<svg id="Layer_1" data-name="Layer 1" xmlns="http://www.w3.org/2000/svg" viewBox="0 0 805.36 137.89"><defs><style>.cls-1{fill:#f6e1c9;}.cls-2{fill:#c8a085;}.cls-3{fill:#f0c2a3;}.cls-4{fill:#828282;}.cls-5{fill:#10171e;}.cls-6{fill:#2b6efe;}</style></defs><polygon class="cls-1" points="119.08 0 126.82 46.22 0 68.93 119.08 0"/><polygon class="cls-2" points="119.08 137.86 126.82 91.63 0 68.93 119.08 137.86"/><polygon class="cls-3" points="126.82 46.22 126.82 91.63 0 68.93 126.82 46.22"/><polygon class="cls-4" points="43.4 43.8 46.26 60.65 0 68.93 43.4 43.8"/><polygon class="cls-5" points="43.4 94.05 46.26 77.21 0 68.93 43.4 94.05"/><polygon class="cls-5" points="0 68.93 46.26 60.65 46.26 77.21 0 68.93"/><path class="cls-6" d="M624.77,30.17V53.85h61.12V84H624.77V107.7h70.74v30.17H594.6V0H695.51V30.17Zm180.59,0V0H704.45V137.87H805.36V107.7H734.62V84h61.11V53.85H734.62V30.17ZM418.44,53.87H386.53v0a11.84,11.84,0,1,1,0-23.68h3.85V0h-3.85a42,42,0,1,0,0,84v0h31.91a11.84,11.84,0,0,1,0,23.68H414.6v30.17h3.84a42,42,0,0,0,0-84Zm-115.93,0H270.6v0a11.84,11.84,0,0,1,0-23.68h3.85V0H270.6a42,42,0,0,0,0,84v0h31.91a11.84,11.84,0,1,1,0,23.68h-3.84v30.17h3.84a42,42,0,0,0,0-84ZM538.39,0h-75l30.17,30.17h44.87a17.26,17.26,0,1,1,0,34.51h-69.1v73.19h30.16v-43h38.94a47.43,47.43,0,1,0,0-94.85ZM148.66,84h61.71V53.85H148.66ZM119.09,0l30.17,30.17H220V0ZM220,137.87V107.7H149.26l-30.17,30.17Z"/></svg>